<?xml version="1.0" encoding="UTF-8"?>
<svg id="Layer_1" data-name="Layer 1" xmlns="http://www.w3.org/2000/svg" viewBox="0 0 1000 1000">
  <defs>
    <style>
      .cls-1 {
        fill: #F2F2F2;
      }
    </style>
  </defs>
  <path class="cls-1" d="M500,78.19c17.05,0,33.15,6.72,45.34,18.91,12.19,12.19,18.91,28.3,18.91,45.34V857.56c0,17.05-6.72,33.15-18.91,45.34-12.19,12.19-28.3,18.91-45.34,18.91s-33.15-6.72-45.34-18.91c-12.19-12.19-18.91-28.3-18.91-45.34V142.44c0-17.05,6.72-33.15,18.91-45.34,12.19-12.19,28.3-18.91,45.34-18.91m0-40.61c-57.67,0-104.86,47.19-104.86,104.86V857.56c0,57.67,47.19,104.86,104.86,104.86s104.86-47.19,104.86-104.86V142.44c0-57.67-47.19-104.86-104.86-104.86h0Z"/>
  <path class="cls-1" d="M247.17,359.17c17.05,0,33.15,6.72,45.34,18.91,12.19,12.19,18.91,28.3,18.91,45.34v217.41h-64.25c-17.05,0-33.15-6.72-45.34-18.91s-18.91-28.3-18.91-45.34v-153.16c0-17.05,6.72-33.15,18.91-45.34,12.19-12.19,28.3-18.91,45.34-18.91m0-40.61h0c-57.67,0-104.86,47.19-104.86,104.86v153.16c0,57.67,47.19,104.86,104.86,104.86h104.86V423.42c0-57.67-47.19-104.86-104.86-104.86h0Z"/>
  <path class="cls-1" d="M752.83,165.3c17.05,0,33.15,6.72,45.34,18.91,12.19,12.19,18.91,28.3,18.91,45.34v241.66c0,17.05-6.72,33.15-18.91,45.34-12.19,12.19-28.3,18.91-45.34,18.91h-64.25V229.55c0-17.05,6.72-33.15,18.91-45.34,12.19-12.19,28.3-18.91,45.34-18.91m0-40.61h0c-57.67,0-104.86,47.19-104.86,104.86v346.52h104.86c57.67,0,104.86-47.19,104.86-104.86V229.55c0-57.67-47.19-104.86-104.86-104.86h0Z"/>
</svg>